<svg id="Ebene_1" data-name="Ebene 1" xmlns="http://www.w3.org/2000/svg" viewBox="0 0 1500 1500"><defs><style>.cls-1{fill:#009688;}.cls-2{fill:#ffc107;}.cls-3{fill:#00897b;}.cls-4{fill:#ffb300;}.cls-5{fill:#00bcd4;}.cls-6{font-size:325.45px;font-family:Garamond-Bold, Garamond;font-weight:700;}.cls-7{letter-spacing:-0.02em;}.cls-8{letter-spacing:0em;}</style></defs><title>Plan de travail 2</title><path class="cls-1" d="M299.41,377.33A1044.72,1044.72,0,0,1,18,955.49H188.77A1174,1174,0,0,0,427.44,394.35L306,377.33Z"/><path class="cls-2" d="M544.31,734.07A1173.77,1173.77,0,0,0,18.52,955.49H264.8a1045,1045,0,0,1,346.06-100A1176.15,1176.15,0,0,1,544.31,734.07Z"/><path class="cls-3" d="M418.72,393,319.1,379l-19.87-.83q-4,27.8-9.38,55.23a1173.69,1173.69,0,0,0,42.55,286,1173.75,1173.75,0,0,0,87-275.75Q418.44,418.39,418.72,393Z"/><path class="cls-4" d="M476.05,746.54a1173.51,1173.51,0,0,0-124.79,34.19,1174.14,1174.14,0,0,0,48.11,120.1A1044.91,1044.91,0,0,1,526.81,868,1044.16,1044.16,0,0,1,476.05,746.54Z"/><path class="cls-5" d="M428.74,377.33H299.58A1173.81,1173.81,0,0,0,464.29,955.49H618A1044.88,1044.88,0,0,1,428.74,377.33Z"/><text class="cls-6" transform="translate(611.7 817.89)">AP<tspan class="cls-7" x="413.65" y="0">T</tspan><tspan class="cls-8" x="631.2" y="0">C</tspan></text></svg>